G04 EAGLE Gerber RS-274X export*
G75*
%MOMM*%
%FSLAX34Y34*%
%LPD*%
%IN*%
%IPPOS*%
%AMOC8*
5,1,8,0,0,1.08239X$1,22.5*%
G01*
%ADD10C,0.254000*%


D10*
X0Y0D02*
X450000Y0D01*
X450000Y600000D01*
X0Y600000D01*
X0Y0D01*
X55500Y419446D02*
X55421Y418342D01*
X55263Y417246D01*
X55028Y416164D01*
X54716Y415102D01*
X54329Y414065D01*
X53869Y413058D01*
X53339Y412086D01*
X52740Y411154D01*
X52077Y410268D01*
X51352Y409431D01*
X50569Y408648D01*
X49732Y407923D01*
X48846Y407260D01*
X47914Y406661D01*
X46943Y406131D01*
X45935Y405671D01*
X44898Y405284D01*
X43836Y404972D01*
X42754Y404737D01*
X41658Y404579D01*
X40554Y404500D01*
X39446Y404500D01*
X38342Y404579D01*
X37246Y404737D01*
X36164Y404972D01*
X35102Y405284D01*
X34065Y405671D01*
X33058Y406131D01*
X32086Y406661D01*
X31154Y407260D01*
X30268Y407923D01*
X29431Y408648D01*
X28648Y409431D01*
X27923Y410268D01*
X27260Y411154D01*
X26661Y412086D01*
X26131Y413058D01*
X25671Y414065D01*
X25284Y415102D01*
X24972Y416164D01*
X24737Y417246D01*
X24579Y418342D01*
X24500Y419446D01*
X24500Y420554D01*
X24579Y421658D01*
X24737Y422754D01*
X24972Y423836D01*
X25284Y424898D01*
X25671Y425935D01*
X26131Y426943D01*
X26661Y427914D01*
X27260Y428846D01*
X27923Y429732D01*
X28648Y430569D01*
X29431Y431352D01*
X30268Y432077D01*
X31154Y432740D01*
X32086Y433339D01*
X33058Y433869D01*
X34065Y434329D01*
X35102Y434716D01*
X36164Y435028D01*
X37246Y435263D01*
X38342Y435421D01*
X39446Y435500D01*
X40554Y435500D01*
X41658Y435421D01*
X42754Y435263D01*
X43836Y435028D01*
X44898Y434716D01*
X45935Y434329D01*
X46943Y433869D01*
X47914Y433339D01*
X48846Y432740D01*
X49732Y432077D01*
X50569Y431352D01*
X51352Y430569D01*
X52077Y429732D01*
X52740Y428846D01*
X53339Y427914D01*
X53869Y426943D01*
X54329Y425935D01*
X54716Y424898D01*
X55028Y423836D01*
X55263Y422754D01*
X55421Y421658D01*
X55500Y420554D01*
X55500Y419446D01*
X425500Y129446D02*
X425421Y128342D01*
X425263Y127246D01*
X425028Y126164D01*
X424716Y125102D01*
X424329Y124065D01*
X423869Y123058D01*
X423339Y122086D01*
X422740Y121154D01*
X422077Y120268D01*
X421352Y119431D01*
X420569Y118648D01*
X419732Y117923D01*
X418846Y117260D01*
X417914Y116661D01*
X416943Y116131D01*
X415935Y115671D01*
X414898Y115284D01*
X413836Y114972D01*
X412754Y114737D01*
X411658Y114579D01*
X410554Y114500D01*
X409446Y114500D01*
X408342Y114579D01*
X407246Y114737D01*
X406164Y114972D01*
X405102Y115284D01*
X404065Y115671D01*
X403058Y116131D01*
X402086Y116661D01*
X401154Y117260D01*
X400268Y117923D01*
X399431Y118648D01*
X398648Y119431D01*
X397923Y120268D01*
X397260Y121154D01*
X396661Y122086D01*
X396131Y123058D01*
X395671Y124065D01*
X395284Y125102D01*
X394972Y126164D01*
X394737Y127246D01*
X394579Y128342D01*
X394500Y129446D01*
X394500Y130554D01*
X394579Y131658D01*
X394737Y132754D01*
X394972Y133836D01*
X395284Y134898D01*
X395671Y135935D01*
X396131Y136943D01*
X396661Y137914D01*
X397260Y138846D01*
X397923Y139732D01*
X398648Y140569D01*
X399431Y141352D01*
X400268Y142077D01*
X401154Y142740D01*
X402086Y143339D01*
X403058Y143869D01*
X404065Y144329D01*
X405102Y144716D01*
X406164Y145028D01*
X407246Y145263D01*
X408342Y145421D01*
X409446Y145500D01*
X410554Y145500D01*
X411658Y145421D01*
X412754Y145263D01*
X413836Y145028D01*
X414898Y144716D01*
X415935Y144329D01*
X416943Y143869D01*
X417914Y143339D01*
X418846Y142740D01*
X419732Y142077D01*
X420569Y141352D01*
X421352Y140569D01*
X422077Y139732D01*
X422740Y138846D01*
X423339Y137914D01*
X423869Y136943D01*
X424329Y135935D01*
X424716Y134898D01*
X425028Y133836D01*
X425263Y132754D01*
X425421Y131658D01*
X425500Y130554D01*
X425500Y129446D01*
X425500Y459446D02*
X425421Y458342D01*
X425263Y457246D01*
X425028Y456164D01*
X424716Y455102D01*
X424329Y454065D01*
X423869Y453058D01*
X423339Y452086D01*
X422740Y451154D01*
X422077Y450268D01*
X421352Y449431D01*
X420569Y448648D01*
X419732Y447923D01*
X418846Y447260D01*
X417914Y446661D01*
X416943Y446131D01*
X415935Y445671D01*
X414898Y445284D01*
X413836Y444972D01*
X412754Y444737D01*
X411658Y444579D01*
X410554Y444500D01*
X409446Y444500D01*
X408342Y444579D01*
X407246Y444737D01*
X406164Y444972D01*
X405102Y445284D01*
X404065Y445671D01*
X403058Y446131D01*
X402086Y446661D01*
X401154Y447260D01*
X400268Y447923D01*
X399431Y448648D01*
X398648Y449431D01*
X397923Y450268D01*
X397260Y451154D01*
X396661Y452086D01*
X396131Y453058D01*
X395671Y454065D01*
X395284Y455102D01*
X394972Y456164D01*
X394737Y457246D01*
X394579Y458342D01*
X394500Y459446D01*
X394500Y460554D01*
X394579Y461658D01*
X394737Y462754D01*
X394972Y463836D01*
X395284Y464898D01*
X395671Y465935D01*
X396131Y466943D01*
X396661Y467914D01*
X397260Y468846D01*
X397923Y469732D01*
X398648Y470569D01*
X399431Y471352D01*
X400268Y472077D01*
X401154Y472740D01*
X402086Y473339D01*
X403058Y473869D01*
X404065Y474329D01*
X405102Y474716D01*
X406164Y475028D01*
X407246Y475263D01*
X408342Y475421D01*
X409446Y475500D01*
X410554Y475500D01*
X411658Y475421D01*
X412754Y475263D01*
X413836Y475028D01*
X414898Y474716D01*
X415935Y474329D01*
X416943Y473869D01*
X417914Y473339D01*
X418846Y472740D01*
X419732Y472077D01*
X420569Y471352D01*
X421352Y470569D01*
X422077Y469732D01*
X422740Y468846D01*
X423339Y467914D01*
X423869Y466943D01*
X424329Y465935D01*
X424716Y464898D01*
X425028Y463836D01*
X425263Y462754D01*
X425421Y461658D01*
X425500Y460554D01*
X425500Y459446D01*
M02*
