G04 EAGLE Gerber RS-274X export*
G75*
%MOMM*%
%FSLAX34Y34*%
%LPD*%
%INSoldermask Bottom*%
%IPPOS*%
%AMOC8*
5,1,8,0,0,1.08239X$1,22.5*%
G01*
%ADD10C,3.303200*%
%ADD11P,1.924489X8X292.500000*%
%ADD12C,1.778000*%
%ADD13P,1.924489X8X22.500000*%
%ADD14P,1.649562X8X22.500000*%
%ADD15C,1.727200*%
%ADD16C,4.521200*%
%ADD17P,2.034460X8X22.500000*%
%ADD18P,2.034460X8X112.500000*%
%ADD19P,1.649562X8X202.500000*%
%ADD20P,1.649562X8X112.500000*%
%ADD21C,2.082800*%
%ADD22C,1.828800*%
%ADD23C,1.854200*%
%ADD24R,1.983200X3.353200*%


D10*
X40000Y420000D03*
X410000Y130000D03*
X410000Y460000D03*
D11*
X131500Y24800D03*
D12*
X131500Y50200D03*
D13*
X143600Y101500D03*
D12*
X118200Y101500D03*
D14*
X343900Y431500D03*
X369300Y431500D03*
X344900Y467700D03*
X370300Y467700D03*
X304700Y231500D03*
X330100Y231500D03*
D15*
X44720Y44100D02*
X29480Y44100D01*
X29480Y69500D02*
X44720Y69500D01*
X44720Y94900D02*
X29480Y94900D01*
D16*
X290300Y56800D03*
X350300Y56800D03*
X320300Y103800D03*
D15*
X52920Y359400D02*
X37680Y359400D01*
X37680Y334000D02*
X52920Y334000D01*
X52920Y308600D02*
X37680Y308600D01*
X37680Y283200D02*
X52920Y283200D01*
X52920Y257800D02*
X37680Y257800D01*
X37680Y232400D02*
X52920Y232400D01*
X403280Y179000D02*
X418520Y179000D01*
X418520Y204400D02*
X403280Y204400D01*
X403280Y229800D02*
X418520Y229800D01*
X418520Y255200D02*
X403280Y255200D01*
X403280Y280600D02*
X418520Y280600D01*
X418520Y306000D02*
X403280Y306000D01*
X403280Y331400D02*
X418520Y331400D01*
X418520Y356800D02*
X403280Y356800D01*
X403280Y382200D02*
X418520Y382200D01*
X418520Y407600D02*
X403280Y407600D01*
X62920Y569100D02*
X47680Y569100D01*
X47680Y543700D02*
X62920Y543700D01*
X62920Y518300D02*
X47680Y518300D01*
X47680Y492900D02*
X62920Y492900D01*
X62920Y467500D02*
X47680Y467500D01*
X397080Y496600D02*
X412320Y496600D01*
X412320Y522000D02*
X397080Y522000D01*
X397080Y547400D02*
X412320Y547400D01*
X412320Y572800D02*
X397080Y572800D01*
D17*
X113300Y435000D03*
X138700Y435000D03*
D18*
X125000Y141700D03*
X125000Y167100D03*
D19*
X149900Y207700D03*
X73700Y207700D03*
D14*
X74100Y388500D03*
X150300Y388500D03*
D20*
X271500Y142500D03*
X271500Y218700D03*
D21*
X244612Y159894D03*
X179588Y159894D03*
X244612Y205106D03*
X179588Y205106D03*
D22*
X249500Y234700D03*
X249500Y260100D03*
X249500Y285500D03*
X249500Y310900D03*
X249500Y336300D03*
X249500Y361700D03*
X249500Y387100D03*
X249500Y412500D03*
X249500Y437900D03*
X249500Y463300D03*
X249500Y488700D03*
X249500Y514100D03*
X249500Y539500D03*
X249500Y564900D03*
X173300Y564900D03*
X173300Y539500D03*
X173300Y514100D03*
X173300Y488700D03*
X173300Y463300D03*
X173300Y437900D03*
X173300Y412500D03*
X173300Y387100D03*
X173300Y361700D03*
X173300Y336300D03*
X173300Y310900D03*
X173300Y285500D03*
X173300Y260100D03*
X173300Y234700D03*
D23*
X291500Y485900D03*
X291500Y435100D03*
D24*
X246150Y60000D03*
X193850Y60000D03*
D15*
X362380Y225400D02*
X377620Y225400D01*
X377620Y200000D02*
X362380Y200000D01*
X362380Y174600D02*
X377620Y174600D01*
M02*
