M48
;GenerationSoftware,Autodesk,EAGLE,9.6.2*%
;CreationDate,2023-09-23T07:57:53Z*%
FMAT,2
ICI,OFF
METRIC,TZ,000.000
T5C0.700
T4C0.813
T3C1.016
T2C2.997
T1C3.100
%
G90
M71
T1
X4000Y42000
X41000Y13000
X41000Y46000
T2
X32030Y10380
X29030Y5680
X35030Y5680
T3
X40470Y52200
X40470Y54740
X40470Y57280
X37000Y20000
X24461Y20511
X24461Y15989
X17959Y15989
X17959Y20511
X4530Y28320
X37000Y17460
X3710Y4410
X3710Y6950
X3710Y9490
X4530Y35940
X4530Y33400
X4530Y30860
X37000Y22540
X4530Y25780
X4530Y23240
X41090Y17900
X41090Y20440
X41090Y22980
X41090Y25520
X41090Y28060
X41090Y30600
X41090Y33140
X41090Y35680
X41090Y38220
X41090Y40760
X5530Y56910
X5530Y54370
X5530Y51830
X5530Y49290
X5530Y46750
X40470Y49660
T4
X13150Y2480
X13150Y5020
X14360Y10150
X11820Y10150
X34390Y43150
X36930Y43150
X34490Y46770
X37030Y46770
X33010Y23150
X30470Y23150
X11330Y43500
X27150Y14250
X27150Y21870
X12500Y14170
X12500Y16710
X13870Y43500
X14990Y20770
X24950Y23470
X24950Y26010
X24950Y28550
X24950Y31090
X24950Y33630
X24950Y36170
X24950Y38710
X24950Y41250
X24950Y43790
X24950Y46330
X7370Y20770
X24950Y51410
X24950Y53950
X24950Y56490
X17330Y56490
X17330Y53950
X17330Y51410
X17330Y48870
X17330Y46330
X17330Y43790
X17330Y41250
X24950Y48870
X17330Y36170
X17330Y33630
X17330Y31090
X17330Y28550
X17330Y26010
X17330Y23470
X7410Y38850
X15030Y38850
X17330Y38710
T5
X29150Y43510
X29150Y48590
M30